# xmcd
#
# Track frame offsets: 
#        150
#        9140
#        18538
#        30623
#        39179
#        55141
#
# Disc length: 971 seconds
#
# Revision: 0
# Processed by: cddbd v1.5.2PL0 Copyright (c) Steve Scherf et al.
# Submitted via: ExactAudioCopyFreeDBPlugin 1.0
#
DISCID=3703c906
DTITLE=Bite the Buffalo - Bromingos
DYEAR=2012
DGENRE=Blues
TTITLE0=Polka Dots
TTITLE1=Riding the Sun
TTITLE2=Should Know Better
TTITLE3=Southern Pink Flamingo
TTITLE4=Hello (Peace of Mind)
TTITLE5=Dear Devil Women
EXTD=
EXTT0=
EXTT1=
EXTT2=
EXTT3=
EXTT4=
EXTT5=
PLAYORDER=
